<svg width="207" height="6" viewBox="0 0 207 6" fill="none" xmlns="http://www.w3.org/2000/svg">
<path d="M206.167 3C206.167 1.52724 204.973 0.333333 203.5 0.333333C202.027 0.333333 200.833 1.52724 200.833 3C200.833 4.47276 202.027 5.66667 203.5 5.66667C204.973 5.66667 206.167 4.47276 206.167 3ZM6.16667 3C6.16667 1.52724 4.97276 0.333333 3.5 0.333333C2.02724 0.333333 0.833328 1.52724 0.833328 3C0.833328 4.47276 2.02724 5.66667 3.5 5.66667C4.97276 5.66667 6.16667 4.47276 6.16667 3ZM203.5 2.5L3.5 2.5V3.5L203.5 3.5V2.5Z" fill="#FF6500"/>
</svg>
