<svg width="90" height="87" viewBox="0 0 90 87" fill="none" xmlns="http://www.w3.org/2000/svg">
<path d="M66.2364 2.69243L11.0872 12.4167C5.64827 13.3757 2.01658 18.5623 2.97562 24.0013L12.179 76.1961C13.138 81.635 18.3246 85.2667 23.7635 84.3077L78.9128 74.5834C84.3517 73.6244 87.9834 68.4378 87.0244 62.9988L77.821 10.804C76.862 5.36508 71.6754 1.7334 66.2364 2.69243Z" fill="#FF6500" fill-opacity="0.5"/>
<path d="M76.9991 15.0033H26.9991C21.4763 15.0033 16.9991 19.4804 16.9991 25.0033V75.0033C16.9991 80.5261 21.4763 85.0033 26.9991 85.0033H76.9991C82.522 85.0033 86.9991 80.5261 86.9991 75.0033V25.0033C86.9991 19.4804 82.522 15.0033 76.9991 15.0033Z" fill="#000957"/>
<path d="M46.8958 44.7789L42.6242 48.9683C41.7617 49.8143 41.7617 51.1858 42.6242 52.0317L46.8958 56.2212M57.2435 44.9154L61.3758 48.9683C62.2383 49.8142 62.2383 51.1858 61.3758 52.0317L57.2435 56.0845M54.6382 41.2031L49.5341 59.7969" stroke="white" stroke-width="2" stroke-linecap="round" stroke-linejoin="round"/>
</svg>
