<svg width="90" height="87" viewBox="0 0 90 87" fill="none" xmlns="http://www.w3.org/2000/svg">
<path d="M66.2364 2.69243L11.0872 12.4167C5.64827 13.3757 2.01658 18.5623 2.97562 24.0013L12.179 76.1961C13.138 81.635 18.3246 85.2667 23.7635 84.3077L78.9128 74.5834C84.3517 73.6244 87.9834 68.4378 87.0244 62.9988L77.821 10.804C76.862 5.36508 71.6754 1.7334 66.2364 2.69243Z" fill="#FF6500" fill-opacity="0.5"/>
<path d="M76.9991 15.0033H26.9991C21.4763 15.0033 16.9991 19.4804 16.9991 25.0033V75.0033C16.9991 80.5261 21.4763 85.0033 26.9991 85.0033H76.9991C82.522 85.0033 86.9991 80.5261 86.9991 75.0033V25.0033C86.9991 19.4804 82.522 15.0033 76.9991 15.0033Z" fill="#000957"/>
<mask id="mask0_58_60" style="mask-type:luminance" maskUnits="userSpaceOnUse" x="34" y="33" width="36" height="35">
<path d="M69.5 68H34.5V33H69.5V68Z" fill="white"/>
</mask>
<g mask="url(#mask0_58_60)">
<path d="M46.9686 48.1521V51.798H52.1603C51.5099 54.107 49.366 55.6728 46.9686 55.5896C44.4099 55.6033 42.1488 53.9274 41.4176 51.4753C40.6864 49.0232 41.6605 46.3827 43.8089 44.9928C45.9573 43.6029 48.765 43.7968 50.702 45.4688L53.3853 42.7855C50.2356 39.9101 45.56 39.4752 41.934 41.7203C38.3081 43.9654 36.6134 48.3448 37.7834 52.4459C38.9535 56.547 42.7039 59.3728 46.9686 59.3667C54.9749 59.3667 56.7395 51.8855 55.952 48.1667L46.9686 48.1521Z" fill="white"/>
<path d="M66.6999 48.7793H63.6665V45.746H61.5374V48.7793H58.5186V50.8939H61.5374V53.9272H63.6665V50.8939H66.6999V48.7793Z" fill="white"/>
</g>
</svg>
