<svg width="90" height="87" viewBox="0 0 90 87" fill="none" xmlns="http://www.w3.org/2000/svg">
<path d="M66.2364 2.69243L11.0872 12.4167C5.64827 13.3757 2.01658 18.5623 2.97562 24.0013L12.179 76.1961C13.138 81.635 18.3246 85.2667 23.7635 84.3077L78.9128 74.5834C84.3517 73.6244 87.9834 68.4378 87.0244 62.9988L77.821 10.804C76.862 5.36508 71.6754 1.7334 66.2364 2.69243Z" fill="#FF6500" fill-opacity="0.5"/>
<path d="M76.9991 15.0033H26.9991C21.4763 15.0033 16.9991 19.4804 16.9991 25.0033V75.0033C16.9991 80.5261 21.4763 85.0033 26.9991 85.0033H76.9991C82.522 85.0033 86.9991 80.5261 86.9991 75.0033V25.0033C86.9991 19.4804 82.522 15.0033 76.9991 15.0033Z" fill="#000957"/>
<path fill-rule="evenodd" clip-rule="evenodd" d="M56.375 41.8666L63.6667 52.6291C63.8423 52.9188 63.8798 53.2716 63.7688 53.5916L61.4355 60.6937C61.2905 61.1437 60.8728 61.4496 60.4 61.4521H60.2396C60.1031 63.8611 58.1098 65.7446 55.6969 65.7446C53.2841 65.7446 51.2908 63.8611 51.1542 61.4521H50.8188C50.3499 61.4517 49.9334 61.1525 49.7834 60.7083L47.4063 53.4896C47.3022 53.1702 47.3506 52.8207 47.5375 52.5416L54.5521 41.8812C54.7518 41.5753 55.091 41.3893 55.4563 41.3854C55.8221 41.3887 56.164 41.5678 56.375 41.8666ZM56.1855 52.3521C56.1855 52.046 55.9374 51.7979 55.6313 51.7979H55.6021C55.3075 51.8134 55.0767 52.057 55.0771 52.3521C55.0771 52.6581 55.3252 52.9062 55.6313 52.9062C55.9374 52.9062 56.1855 52.6581 56.1855 52.3521ZM55.6896 63.625C54.4559 63.6207 53.4331 62.6679 53.3417 61.4375H58.0521C57.9603 62.6735 56.929 63.6284 55.6896 63.625ZM51.6209 59.25H59.6125L61.523 53.4166L56.5938 46.125V49.8C57.8043 50.2705 58.5186 51.5257 58.3048 52.8067C58.091 54.0877 57.0078 55.043 55.7101 55.0949C54.4124 55.1468 53.2564 54.2811 52.9409 53.0213C52.6255 51.7615 53.2373 50.4532 54.4063 49.8875V46.125L49.6521 53.3L51.6209 59.25Z" fill="white"/>
<path fill-rule="evenodd" clip-rule="evenodd" d="M45.6005 45.849C45.7553 42.0196 48.9027 38.9852 52.7438 38.9791C53.1834 39.9457 54.1465 40.5669 55.2084 40.5687C56.5569 40.5728 57.7012 39.5805 57.8883 38.2451C58.0754 36.9096 57.2477 35.6412 55.95 35.2745C54.6523 34.9079 53.2832 35.5557 52.7438 36.7916H44.1688C43.6526 35.6351 42.398 34.9971 41.1593 35.261C39.9207 35.5249 39.0352 36.6189 39.0352 37.8854C39.0352 39.1519 39.9207 40.2459 41.1593 40.5098C42.398 40.7737 43.6526 40.1356 44.1688 38.9791H46.75C44.6997 40.6825 43.4784 43.1835 43.3959 45.8479C42.2336 46.3674 41.5928 47.6288 41.8584 48.8738C42.124 50.1189 43.2238 51.0088 44.4969 51.0088C45.77 51.0088 46.8698 50.1189 47.1355 48.8738C47.4009 47.6297 46.7611 46.3693 45.6005 45.849ZM55.7042 37.8854C55.7043 37.6091 55.4846 37.3829 55.2084 37.375C54.9265 37.375 54.698 37.6035 54.698 37.8854C54.7059 38.1616 54.9321 38.3813 55.2084 38.3812C55.4822 38.3812 55.7042 38.1592 55.7042 37.8854ZM41.7917 38.3812C41.6577 38.3852 41.5278 38.3347 41.4316 38.2413C41.3355 38.1478 41.2812 38.0195 41.2813 37.8854C41.2471 37.6852 41.3348 37.4838 41.5047 37.3725C41.6746 37.2612 41.8943 37.2612 42.0641 37.3725C42.234 37.4838 42.3217 37.6852 42.2875 37.8854C42.2875 38.0169 42.2353 38.143 42.1423 38.236C42.0493 38.329 41.9232 38.3812 41.7917 38.3812ZM43.9439 48.5189C44.022 48.7114 44.209 48.8374 44.4167 48.8375C44.693 48.8376 44.9192 48.6178 44.9271 48.3416C44.9331 48.134 44.8125 47.9434 44.6224 47.8598C44.4322 47.7762 44.2103 47.8162 44.0613 47.9609C43.9123 48.1057 43.8658 48.3263 43.9439 48.5189Z" fill="white"/>
</svg>
