<svg width="90" height="87" viewBox="0 0 90 87" fill="none" xmlns="http://www.w3.org/2000/svg">
<path d="M66.2364 2.69243L11.0872 12.4167C5.64827 13.3757 2.01658 18.5623 2.97562 24.0013L12.179 76.1961C13.138 81.635 18.3246 85.2667 23.7635 84.3077L78.9128 74.5834C84.3517 73.6244 87.9834 68.4378 87.0244 62.9988L77.821 10.804C76.862 5.36508 71.6754 1.7334 66.2364 2.69243Z" fill="#FF6500" fill-opacity="0.5"/>
<path d="M76.9991 15.0033H26.9991C21.4763 15.0033 16.9991 19.4804 16.9991 25.0033V75.0033C16.9991 80.5261 21.4763 85.0033 26.9991 85.0033H76.9991C82.522 85.0033 86.9991 80.5261 86.9991 75.0033V25.0033C86.9991 19.4804 82.522 15.0033 76.9991 15.0033Z" fill="#000957"/>
<mask id="mask0_58_44" style="mask-type:luminance" maskUnits="userSpaceOnUse" x="34" y="32" width="36" height="36">
<path d="M69.4991 67.5033H34.4991V32.5033H69.4991V67.5033Z" fill="white"/>
</mask>
<g mask="url(#mask0_58_44)">
<path d="M64.0158 39.0366C64.3269 39.0366 64.5991 39.1533 64.8325 39.3866C65.0658 39.6199 65.1825 39.8922 65.1825 40.2033V56.5366H38.9325V40.2033C38.9325 39.8922 39.0297 39.6199 39.2241 39.3866C39.4186 39.1533 39.6714 39.0366 39.9825 39.0366H64.0158ZM39.9825 36.8199C39.0491 36.8199 38.2714 37.1505 37.6491 37.8116C37.0269 38.4727 36.7158 39.2699 36.7158 40.2033V58.7533H67.2825V40.2033C67.2825 39.2699 66.9714 38.4922 66.3491 37.8699C65.7269 37.2477 64.9491 36.9366 64.0158 36.9366H39.9825V36.8199ZM34.4991 59.8033H69.4991C69.4991 60.7366 69.188 61.5144 68.5658 62.1366C67.9436 62.7588 67.1658 63.0699 66.2325 63.0699H37.7658C36.8325 63.0699 36.0547 62.7588 35.4325 62.1366C34.8103 61.5144 34.4991 60.7366 34.4991 59.8033Z" fill="white"/>
</g>
</svg>
